<svg style="stroke: inherit;" width="16" height="16" viewBox="0 0 14 13" fill="none" xmlns="http://www.w3.org/2000/svg">
<path d="M12.1567 2.18922C11.8587 1.89114 11.505 1.65468 11.1156 1.49336C10.7263 1.33203 10.3089 1.24899 9.8875 1.24899C9.46605 1.24899 9.04873 1.33203 8.65937 1.49336C8.27002 1.65468 7.91627 1.89114 7.61833 2.18922L7 2.80756L6.38166 2.18922C5.77984 1.5874 4.9636 1.2493 4.1125 1.2493C3.2614 1.2493 2.44515 1.5874 1.84333 2.18922C1.24151 2.79105 0.903412 3.60729 0.903412 4.45839C0.903412 5.30949 1.24151 6.12574 1.84333 6.72756L7 11.8842L12.1567 6.72756C12.4547 6.42962 12.6912 6.07587 12.8525 5.68652C13.0139 5.29716 13.0969 4.87984 13.0969 4.45839C13.0969 4.03694 13.0139 3.61962 12.8525 3.23027C12.6912 2.84092 12.4547 2.48717 12.1567 2.18922Z" stroke-width="2" stroke-linecap="round" stroke-linejoin="round"/>
</svg>
